<svg width="30" height="30" viewBox="0 0 30 30" fill="none" xmlns="http://www.w3.org/2000/svg">
<path d="M8 9C8 8.73478 8.10536 8.48043 8.29289 8.29289C8.48043 8.10536 8.73478 8 9 8H11C11.2652 8 11.5196 8.10536 11.7071 8.29289C11.8946 8.48043 12 8.73478 12 9V11C12 11.2652 11.8946 11.5196 11.7071 11.7071C11.5196 11.8946 11.2652 12 11 12H9C8.73478 12 8.48043 11.8946 8.29289 11.7071C8.10536 11.5196 8 11.2652 8 11V9ZM13 9C13 8.73478 13.1054 8.48043 13.2929 8.29289C13.4804 8.10536 13.7348 8 14 8H16C16.2652 8 16.5196 8.10536 16.7071 8.29289C16.8946 8.48043 17 8.73478 17 9V11C17 11.2652 16.8946 11.5196 16.7071 11.7071C16.5196 11.8946 16.2652 12 16 12H14C13.7348 12 13.4804 11.8946 13.2929 11.7071C13.1054 11.5196 13 11.2652 13 11V9ZM18 9C18 8.73478 18.1054 8.48043 18.2929 8.29289C18.4804 8.10536 18.7348 8 19 8H21C21.2652 8 21.5196 8.10536 21.7071 8.29289C21.8946 8.48043 22 8.73478 22 9V11C22 11.2652 21.8946 11.5196 21.7071 11.7071C21.5196 11.8946 21.2652 12 21 12H19C18.7348 12 18.4804 11.8946 18.2929 11.7071C18.1054 11.5196 18 11.2652 18 11V9ZM8 14C8 13.7348 8.10536 13.4804 8.29289 13.2929C8.48043 13.1054 8.73478 13 9 13H11C11.2652 13 11.5196 13.1054 11.7071 13.2929C11.8946 13.4804 12 13.7348 12 14V16C12 16.2652 11.8946 16.5196 11.7071 16.7071C11.5196 16.8946 11.2652 17 11 17H9C8.73478 17 8.48043 16.8946 8.29289 16.7071C8.10536 16.5196 8 16.2652 8 16V14ZM13 14C13 13.7348 13.1054 13.4804 13.2929 13.2929C13.4804 13.1054 13.7348 13 14 13H16C16.2652 13 16.5196 13.1054 16.7071 13.2929C16.8946 13.4804 17 13.7348 17 14V16C17 16.2652 16.8946 16.5196 16.7071 16.7071C16.5196 16.8946 16.2652 17 16 17H14C13.7348 17 13.4804 16.8946 13.2929 16.7071C13.1054 16.5196 13 16.2652 13 16V14ZM18 14C18 13.7348 18.1054 13.4804 18.2929 13.2929C18.4804 13.1054 18.7348 13 19 13H21C21.2652 13 21.5196 13.1054 21.7071 13.2929C21.8946 13.4804 22 13.7348 22 14V16C22 16.2652 21.8946 16.5196 21.7071 16.7071C21.5196 16.8946 21.2652 17 21 17H19C18.7348 17 18.4804 16.8946 18.2929 16.7071C18.1054 16.5196 18 16.2652 18 16V14ZM8 19C8 18.7348 8.10536 18.4804 8.29289 18.2929C8.48043 18.1054 8.73478 18 9 18H11C11.2652 18 11.5196 18.1054 11.7071 18.2929C11.8946 18.4804 12 18.7348 12 19V21C12 21.2652 11.8946 21.5196 11.7071 21.7071C11.5196 21.8946 11.2652 22 11 22H9C8.73478 22 8.48043 21.8946 8.29289 21.7071C8.10536 21.5196 8 21.2652 8 21V19ZM13 19C13 18.7348 13.1054 18.4804 13.2929 18.2929C13.4804 18.1054 13.7348 18 14 18H16C16.2652 18 16.5196 18.1054 16.7071 18.2929C16.8946 18.4804 17 18.7348 17 19V21C17 21.2652 16.8946 21.5196 16.7071 21.7071C16.5196 21.8946 16.2652 22 16 22H14C13.7348 22 13.4804 21.8946 13.2929 21.7071C13.1054 21.5196 13 21.2652 13 21V19ZM18 19C18 18.7348 18.1054 18.4804 18.2929 18.2929C18.4804 18.1054 18.7348 18 19 18H21C21.2652 18 21.5196 18.1054 21.7071 18.2929C21.8946 18.4804 22 18.7348 22 19V21C22 21.2652 21.8946 21.5196 21.7071 21.7071C21.5196 21.8946 21.2652 22 21 22H19C18.7348 22 18.4804 21.8946 18.2929 21.7071C18.1054 21.5196 18 21.2652 18 21V19Z" fill="#535455"/>
</svg>
