<svg width="30" height="30" viewBox="0 0 30 30" fill="none" xmlns="http://www.w3.org/2000/svg">
<path d="M15 8V9.5M15 20.5V22M12 11.5H16.5C17.163 11.5 17.7989 11.7634 18.2678 12.2322C18.7366 12.7011 19 13.337 19 14C19 14.663 18.7366 15.2989 18.2678 15.7678C17.7989 16.2366 17.163 16.5 16.5 16.5H15M12 11.5V16.5M12 11.5H11M12 16.5H17C17.663 16.5 18.2989 16.7634 18.7678 17.2322C19.2366 17.7011 19.5 18.337 19.5 19C19.5 19.663 19.2366 20.2989 18.7678 20.7678C18.2989 21.2366 17.663 21.5 17 21.5H12V16.5M12 21.5H11" stroke="#535455" stroke-width="1.5" stroke-linecap="round" stroke-linejoin="round"/>
</svg>
