<svg width="14" height="14" viewBox="0 0 14 14" fill="none" xmlns="http://www.w3.org/2000/svg">
<path d="M9.09931 1.36621C10.3991 1.36621 11.6456 1.90704 12.5646 2.86973C13.4837 3.83242 14 5.1381 14 6.49954C14 7.86099 13.4837 9.16667 12.5646 10.1294C11.6456 11.092 10.3991 11.6329 9.09931 11.6329H3.49853C2.9922 11.6326 2.49196 11.5172 2.03232 11.2948C1.57268 11.0723 1.16458 10.7481 0.836176 10.3444C0.50777 9.94075 0.266876 9.46726 0.130113 8.95661C-0.00665009 8.44595 -0.0360264 7.91031 0.0440106 7.38661C0.124048 6.86291 0.311592 6.36364 0.593707 5.92323C0.875821 5.48282 1.24579 5.11175 1.67809 4.83564C2.11039 4.55952 2.59473 4.38493 3.09769 4.3239C3.60065 4.26287 4.11027 4.31686 4.59138 4.48214C4.96889 3.55741 5.59734 2.76916 6.39873 2.21523C7.20012 1.6613 8.13917 1.36608 9.09931 1.36621Z" fill="#535455"/>
</svg>
