<svg width="30" height="30" viewBox="0 0 30 30" fill="none" xmlns="http://www.w3.org/2000/svg">
<rect width="30" height="30" rx="15" fill="white"/>
<path d="M17.7493 10C19.1418 10 20.4774 10.5795 21.4621 11.6109C22.4468 12.6424 23 14.0413 23 15.5C23 16.9587 22.4468 18.3576 21.4621 19.3891C20.4774 20.4205 19.1418 21 17.7493 21H11.7484C11.2059 20.9997 10.67 20.8761 10.1775 20.6378C9.68502 20.3994 9.24777 20.052 8.8959 19.6195C8.54404 19.187 8.28594 18.6797 8.13941 18.1326C7.99287 17.5854 7.9614 17.0115 8.04715 16.4504C8.13291 15.8893 8.33385 15.3544 8.63611 14.8825C8.93838 14.4106 9.33477 14.0131 9.79795 13.7172C10.2611 13.4214 10.7801 13.2343 11.319 13.169C11.8578 13.1036 12.4039 13.1614 12.9193 13.3385C13.3238 12.3477 13.9971 11.5032 14.8558 10.9097C15.7144 10.3162 16.7205 9.99986 17.7493 10Z" fill="#0F0F0F"/>
</svg>
