<svg width="16" height="16" viewBox="0 0 16 16" fill="none" xmlns="http://www.w3.org/2000/svg">
<path d="M15.6 7.3L8.7 0.4C8.5 0.2 8.2 0.2 8 0.4L6.5 1.9L8.4 3.8C8.7 3.7 9.1 3.8 9.3 4C9.6 4.3 9.7 4.7 9.6 5L11.4 6.8C11.7 6.7 12.1 6.8 12.3 7C12.7 7.4 12.7 8 12.3 8.4C11.9 8.8 11.3 8.8 10.9 8.4C10.7 8.2 10.6 7.8 10.7 7.5L9 5.8V10.3C9.1 10.4 9.2 10.5 9.3 10.6C9.7 11 9.7 11.6 9.3 12C8.9 12.4 8.3 12.4 7.9 12C7.5 11.6 7.5 11 7.9 10.6C8 10.5 8.1 10.4 8.2 10.4V5.9C8.1 5.8 8 5.8 7.9 5.7C7.7 5.5 7.6 5.1 7.7 4.8L5.8 2.9L0.4 8.3C0.2 8.5 0.2 8.8 0.4 9L7.3 15.9C7.5 16.1 7.8 16.1 8 15.9L15.6 8.3C15.8 8.1 15.8 7.5 15.6 7.3Z" fill="#535455"/>
</svg>
