<svg width="30" height="30" viewBox="0 0 30 30" fill="none" xmlns="http://www.w3.org/2000/svg">
<path d="M8.04297 15.8506C9.59833 16.0354 11.0463 16.7381 12.1538 17.8457C13.2614 18.9532 13.9641 20.4012 14.149 21.9566C14.92 21.512 15.5649 20.8783 16.0228 20.1151C16.4807 19.352 16.7364 18.4846 16.7658 17.5951C18.2305 17.0799 19.5095 16.1419 20.4411 14.8998C21.3726 13.6577 21.915 12.1672 21.9995 10.6169C21.9995 9.92282 21.7238 9.25721 21.2331 8.76646C20.7423 8.2757 20.0767 8 19.3827 8C17.8323 8.08453 16.3419 8.62688 15.0997 9.55847C13.8576 10.4901 12.9196 11.769 12.4044 13.2337C11.5149 13.2631 10.6476 13.5188 9.88442 13.9767C9.12126 14.4346 8.48748 15.0795 8.04297 15.8506" stroke="#535455" stroke-width="1.5" stroke-linecap="round" stroke-linejoin="round"/>
<path d="M10.6607 16.7227C9.75287 17.2352 9.01878 18.0072 8.55254 18.9396C8.08631 19.8721 7.90918 20.9226 8.04386 21.9564C9.07766 22.091 10.1281 21.9139 11.0606 21.4477C11.9931 20.9815 12.765 20.2474 13.2776 19.3395" stroke="#535455" stroke-width="1.5" stroke-linecap="round" stroke-linejoin="round"/>
<path d="M17.6389 13.2338C18.1206 13.2338 18.5112 12.8433 18.5112 12.3615C18.5112 11.8798 18.1206 11.4893 17.6389 11.4893C17.1571 11.4893 16.7666 11.8798 16.7666 12.3615C16.7666 12.8433 17.1571 13.2338 17.6389 13.2338Z" fill="#535455" stroke="#535455" stroke-width="1.5" stroke-linecap="round" stroke-linejoin="round"/>
</svg>
