<svg width="14" height="14" viewBox="0 0 14 14" fill="none" xmlns="http://www.w3.org/2000/svg">
<path d="M3.16079 9.66174C2.59505 9.66163 2.03971 9.5097 1.55269 9.22182C1.06568 8.93394 0.664841 8.52064 0.39199 8.02505C0.119138 7.52946 -0.0157286 6.96973 0.00145979 6.40425C0.0186481 5.83878 0.187261 5.28827 0.48971 4.81017C0.792158 4.33207 1.21736 3.94388 1.72096 3.68611C2.22456 3.42834 2.7881 3.31042 3.3528 3.34466C3.9175 3.37891 4.46267 3.56406 4.93143 3.8808C5.40018 4.19753 5.77536 4.63426 6.01782 5.1454H12.6451L14 6.50031L12.6451 7.85521L11.7418 6.95194L10.8386 7.85521L9.93529 6.95194L9.03203 7.85521L8.12876 6.95194L7.22549 7.85521H6.01782C5.76138 8.39584 5.35677 8.85259 4.85102 9.17238C4.34527 9.49217 3.75916 9.66187 3.16079 9.66174V9.66174ZM2.25752 7.40357C2.49708 7.40357 2.72683 7.30841 2.89622 7.13901C3.06562 6.96962 3.16079 6.73987 3.16079 6.50031C3.16079 6.26074 3.06562 6.03099 2.89622 5.8616C2.72683 5.6922 2.49708 5.59704 2.25752 5.59704C2.01796 5.59704 1.78821 5.6922 1.61881 5.8616C1.44941 6.03099 1.35425 6.26074 1.35425 6.50031C1.35425 6.73987 1.44941 6.96962 1.61881 7.13901C1.78821 7.30841 2.01796 7.40357 2.25752 7.40357V7.40357Z" fill="#535455"/>
</svg>
