<svg width="24" height="24" viewBox="0 0 24 24" fill="none" xmlns="http://www.w3.org/2000/svg">
<path d="M19.554 9.488c.121.563.106 1.246-.04 2.051-.582 2.978-2.477 4.466-5.683 4.466h-.442a.666.666 0 0 0-.444.166.72.72 0 0 0-.239.404l-.041.189-.553 3.479-.021.151a.706.706 0 0 1-.247.404.666.666 0 0 1-.447.166H8.874a.395.395 0 0 1-.331-.147.457.457 0 0 1-.09-.349c.14-.898.574-3.627.574-3.627a.727.727 0 0 1 .241-.404.67.67 0 0 1 .447-.166h1.036c3.964 0 7.068-1.609 7.975-6.265.357-1.838.082-3.307-.863-4.297a3.426 3.426 0 0 0-.309-.246z" fill="#179BD7"/>
<path d="M18.245 8.442a5.751 5.751 0 0 0-.703-.244 9.098 9.098 0 0 0-1.444-.217c-.9-.078-1.893-.11-2.956-.11H9.319a.666.666 0 0 0-.447.166.722.722 0 0 0-.241.407l-.89 5.627-.026.165a.722.722 0 0 1 .241-.407.666.666 0 0 1 .447-.166h1.859c3.206 0 5.102-1.488 5.683-4.466.148-.805.161-1.488.04-2.051a2.928 2.928 0 0 0-.74-.704z" fill="#222D65"/>
<path d="M8.631 8.611a.722.722 0 0 1 .241-.407.666.666 0 0 1 .447-.166h3.823c.453 0 .876.028 1.269.086.112.017.222.035.33.056.108.02.214.043.318.068.052.013.103.026.154.04.202.055.395.119.577.193a4.49 4.49 0 0 0-.934-3.028C13.998 4.324 12.482 3.75 10.4 3.75H5.146a.666.666 0 0 0-.447.166.722.722 0 0 0-.241.407L2.512 18.639a.457.457 0 0 0 .09.349.395.395 0 0 0 .331.148h3.011l.756-4.794.89-5.627.041-.104z" fill="#253B80"/>
</svg>
