<svg width="16" height="16" viewBox="0 0 16 16" fill="none" xmlns="http://www.w3.org/2000/svg">
<path d="M0.792969 8.60056C2.34833 8.78541 3.79629 9.48814 4.90384 10.5957C6.01138 11.7032 6.71412 13.1512 6.89896 14.7066C7.66999 14.262 8.31493 13.6283 8.77283 12.8651C9.23072 12.102 9.48644 11.2346 9.51582 10.3451C10.9805 9.82989 12.2595 8.8919 13.1911 7.64978C14.1226 6.40766 14.665 4.9172 14.7495 3.36685C14.7495 2.67282 14.4738 2.00721 13.9831 1.51646C13.4923 1.0257 12.8267 0.75 12.1327 0.75C10.5823 0.834531 9.09186 1.37688 7.84974 2.30847C6.60762 3.24006 5.66964 4.51905 5.15439 5.98371C4.26489 6.01308 3.39757 6.2688 2.63442 6.7267C1.87126 7.18459 1.23748 7.82953 0.792969 8.60056" stroke="#535455" stroke-width="1.5" stroke-linecap="round" stroke-linejoin="round"/>
<path d="M3.41072 9.47266C2.50287 9.98519 1.76878 10.7572 1.30254 11.6896C0.836307 12.6221 0.659179 13.6726 0.793863 14.7064C1.82766 14.841 2.87812 14.6639 3.81059 14.1977C4.74306 13.7315 5.51504 12.9974 6.02757 12.0895" stroke="#535455" stroke-width="1.5" stroke-linecap="round" stroke-linejoin="round"/>
<path d="M10.3889 5.98383C10.8706 5.98383 11.2612 5.59329 11.2612 5.11154C11.2612 4.62979 10.8706 4.23926 10.3889 4.23926C9.90714 4.23926 9.5166 4.62979 9.5166 5.11154C9.5166 5.59329 9.90714 5.98383 10.3889 5.98383Z" fill="#535455" stroke="#535455" stroke-width="2" stroke-linecap="round" stroke-linejoin="round"/>
</svg>
