<svg width="30" height="30" viewBox="0 0 30 30" fill="none" xmlns="http://www.w3.org/2000/svg">
<rect width="30" height="30" rx="15" fill="white"/>
<path d="M11.6123 19C10.9658 18.9999 10.3311 18.8317 9.77451 18.513C9.21792 18.1943 8.75982 17.7367 8.44799 17.188C8.13616 16.6394 7.98202 16.0197 8.00167 15.3937C8.02131 14.7676 8.21401 14.1582 8.55967 13.6289C8.90532 13.0996 9.39127 12.6698 9.96681 12.3844C10.5424 12.099 11.1864 11.9685 11.8318 12.0064C12.4771 12.0443 13.1002 12.2493 13.6359 12.6C14.1716 12.9506 14.6004 13.4341 14.8775 14H22.4515L24 15.5L22.4515 17L21.4192 16L20.3869 17L19.3546 16L18.3223 17L17.29 16L16.2577 17H14.8775C14.5844 17.5985 14.122 18.1042 13.544 18.4582C12.966 18.8123 12.2962 19.0001 11.6123 19V19ZM10.58 16.5C10.8538 16.5 11.1164 16.3946 11.31 16.2071C11.5036 16.0196 11.6123 15.7652 11.6123 15.5C11.6123 15.2348 11.5036 14.9804 11.31 14.7929C11.1164 14.6054 10.8538 14.5 10.58 14.5C10.3062 14.5 10.0437 14.6054 9.85007 14.7929C9.65647 14.9804 9.54771 15.2348 9.54771 15.5C9.54771 15.7652 9.65647 16.0196 9.85007 16.2071C10.0437 16.3946 10.3062 16.5 10.58 16.5V16.5Z" fill="#0F0F0F"/>
</svg>
